<?xml version="1.0" encoding="UTF-8"?>
<svg version="1.1" xmlns="http://www.w3.org/2000/svg" width="720" height="720">
<path d="M0 0 C237.6 0 475.2 0 720 0 C720 237.6 720 475.2 720 720 C482.4 720 244.8 720 0 720 C0 482.4 0 244.8 0 0 Z " fill="#000000" transform="translate(0,0)"/>
<path d="M0 0 C1.83326038 0.06839072 3.66659526 0.1348142 5.5 0.19921875 C9.95951645 0.36012144 14.41717799 0.54768982 18.875 0.75 C19.205 5.37 19.535 9.99 19.875 14.75 C20.49375 13.88375 21.1125 13.0175 21.75 12.125 C27.89154563 4.80704562 37.56168939 0.43851308 46.95996094 -0.44628906 C60.83187997 -1.37732964 72.92567358 0.4408704 83.87890625 9.74609375 C92.72249224 18.6242926 97.85324708 30.26166017 98.08032227 42.81567383 C98.10026749 43.79631302 98.12021271 44.77695221 98.14076233 45.78730774 C98.16583107 47.35632088 98.16583107 47.35632088 98.19140625 48.95703125 C98.21218735 50.03756271 98.23296844 51.11809418 98.25437927 52.23136902 C98.31964036 55.67501611 98.37865075 59.11873795 98.4375 62.5625 C98.48070751 64.90039828 98.52432251 67.23828907 98.56835938 69.57617188 C98.67529772 75.30070278 98.77710727 81.02530765 98.875 86.75 C99.41769531 86.25628906 99.96039062 85.76257813 100.51953125 85.25390625 C101.23496094 84.61324219 101.95039062 83.97257812 102.6875 83.3125 C103.74904297 82.35537109 103.74904297 82.35537109 104.83203125 81.37890625 C109.89051498 77.34566014 116.74926034 78.36436022 122.875 78.75 C129.25670204 79.90193178 133.25696279 84.68065972 136.875 89.75 C138.54575165 94.76225494 138.94031518 100.05456892 136.96875 105.04296875 C134.35121834 109.51458534 131.48482419 112.2530119 126.875 114.75 C126.1325 115.1625 125.39 115.575 124.625 116 C117.87412488 117.84114776 111.74478868 117.42935302 105.63671875 113.97265625 C103.02000441 112.15662169 100.98976017 110.12910519 98.875 107.75 C98.545 110.06 98.215 112.37 97.875 114.75 C86.325 114.75 74.775 114.75 62.875 114.75 C62.84921875 109.7896875 62.8234375 104.829375 62.796875 99.71875 C62.77169061 96.56505341 62.74534565 93.41145122 62.71484375 90.2578125 C62.66660311 85.25878617 62.62252323 80.2599785 62.60400391 75.26074219 C62.58879296 71.22747062 62.55426989 67.19477343 62.50669098 63.16175842 C62.49192266 61.62774159 62.48396161 60.09364274 62.48311615 58.55955505 C62.60256699 45.94883191 62.60256699 45.94883191 56.4989624 35.24694824 C50.86489625 30.09028311 44.98656917 29.27137001 37.625 29.44140625 C32.61490908 30.00361816 28.82946145 31.69083525 25.34375 35.36328125 C21.04155414 41.00366013 19.63503509 46.60018662 19.55615234 53.67333984 C19.54610672 54.3374588 19.5360611 55.00157776 19.52571106 55.68582153 C19.49504738 57.86085212 19.47789145 60.03576059 19.4609375 62.2109375 C19.44221225 63.72694945 19.42263784 65.24295112 19.4022522 66.75894165 C19.35106809 70.73396734 19.31136931 74.70902677 19.27410889 78.6842041 C19.22691827 83.46180591 19.16537959 88.23924212 19.10626221 93.01670837 C19.01821728 100.26107156 18.94833367 107.5054057 18.875 114.75 C7.325 114.75 -4.225 114.75 -16.125 114.75 C-16.125 89.01 -16.125 63.27 -16.125 36.75 C-30.27020026 37.24184745 -30.27020026 37.24184745 -41.5 44 C-46.32913714 52.17238593 -46.58979614 59.32201463 -46.63671875 68.65625 C-46.65359218 69.99004745 -46.67174595 71.32382925 -46.69111633 72.65759277 C-46.73833418 76.14269113 -46.76832472 79.62772605 -46.79455566 83.11303711 C-46.82450495 86.67965128 -46.87082749 90.24605172 -46.91601562 93.8125 C-47.0032554 100.79168178 -47.06343988 107.77035589 -47.125 114.75 C-58.675 114.75 -70.225 114.75 -82.125 114.75 C-82.455 108.81 -82.785 102.87 -83.125 96.75 C-84.383125 98.255625 -85.64125 99.76125 -86.9375 101.3125 C-95.92073784 111.26727923 -108.20782407 118.16564043 -121.75219727 118.890625 C-140.48074264 119.49913919 -154.51001534 118.26613106 -169.37890625 105.87109375 C-175.04185312 100.55200703 -179.65382119 94.16353642 -182.125 86.75 C-182.785 86.42 -183.445 86.09 -184.125 85.75 C-184.40085937 87.01714844 -184.67671875 88.28429687 -184.9609375 89.58984375 C-186.13091478 94.8547415 -187.43036931 100.08345246 -188.75 105.3125 C-189.925625 109.9840625 -189.925625 109.9840625 -191.125 114.75 C-204.325 114.75 -217.525 114.75 -231.125 114.75 C-232.341875 109.531875 -233.55875 104.31375 -234.8125 98.9375 C-237.22929599 88.61661259 -239.68793509 78.32152812 -242.46044922 68.08935547 C-244.62449002 60.03897457 -246.38200307 51.9002147 -248.125 43.75 C-250.59539646 50.73011983 -252.45612314 57.77165407 -254.18956375 64.96795654 C-254.67375642 66.97773741 -255.16275603 68.98629744 -255.65292358 70.99462891 C-256.68950079 75.24539964 -257.72010906 79.49760514 -258.75 83.75 C-259.95114895 88.70836842 -261.15474654 93.66611919 -262.36420822 98.62246704 C-262.84628811 100.6033276 -263.32405994 102.58519549 -263.80166626 104.56713867 C-264.23749527 106.35535034 -264.23749527 106.35535034 -264.68212891 108.1796875 C-264.93733307 109.23397949 -265.19253723 110.28827148 -265.45547485 111.37451172 C-266.125 113.75 -266.125 113.75 -267.125 114.75 C-270.0093382 114.83865208 -272.86962158 114.86521296 -275.75390625 114.84765625 C-277.05025246 114.84553383 -277.05025246 114.84553383 -278.37278748 114.84336853 C-281.14439292 114.83775239 -283.9159188 114.82519719 -286.6875 114.8125 C-288.5618478 114.80748708 -290.43619685 114.80292381 -292.31054688 114.79882812 C-296.91539544 114.78777772 -301.52018421 114.7705023 -306.125 114.75 C-306.3108667 114.02635254 -306.4967334 113.30270508 -306.68823242 112.55712891 C-310.1715109 99.01259646 -313.70361472 85.48996781 -317.48925781 72.02685547 C-318.70018759 67.69001555 -319.8799449 63.34464588 -321.0625 59 C-321.31394775 58.07662842 -321.56539551 57.15325684 -321.82446289 56.2019043 C-322.33605929 54.32278706 -322.84753326 52.44363649 -323.35888672 50.56445312 C-324.36414407 46.87146182 -325.37117149 43.17895486 -326.37866211 39.48657227 C-326.8735164 37.67210654 -327.36782588 35.85749213 -327.86157227 34.04272461 C-329.1745703 29.2191571 -330.49815893 24.3987899 -331.8359375 19.58203125 C-332.114375 18.57462891 -332.3928125 17.56722656 -332.6796875 16.52929688 C-333.21564027 14.59093436 -333.75457487 12.65339317 -334.296875 10.71679688 C-334.53664063 9.84732422 -334.77640625 8.97785156 -335.0234375 8.08203125 C-335.23661621 7.31608643 -335.44979492 6.5501416 -335.66943359 5.76098633 C-336.125 3.75 -336.125 3.75 -336.125 0.75 C-324.575 0.75 -313.025 0.75 -301.125 0.75 C-299.51818359 8.71060547 -299.51818359 8.71060547 -297.87890625 16.83203125 C-297.20007727 20.19079744 -296.52113751 23.54954048 -295.84179688 26.90820312 C-294.76315375 32.24107331 -293.68492531 37.57402503 -292.60913086 42.9074707 C-291.74193588 47.20661436 -290.87291094 51.50538437 -290.00260735 55.80389977 C-289.67062905 57.4452359 -289.33931422 59.08670636 -289.0086689 60.72831154 C-288.54601937 63.02471684 -288.08102908 65.32063641 -287.61547852 67.61645508 C-287.47881271 68.2976239 -287.34214691 68.97879272 -287.20133972 69.68060303 C-286.63893391 72.44342322 -286.01794686 75.07115942 -285.125 77.75 C-281.55711847 63.78879364 -278.07673158 49.82840864 -275 35.75 C-273.20457073 27.5358364 -271.3490365 19.34558176 -269.3125 11.1875 C-269.10544434 10.35412109 -268.89838867 9.52074219 -268.68505859 8.66210938 C-267.25533697 3.01067394 -267.25533697 3.01067394 -266.125 0.75 C-253.915 0.75 -241.705 0.75 -229.125 0.75 C-224.62924282 16.48515013 -224.62924282 16.48515013 -223.4140625 22.01953125 C-223.14166748 23.24591309 -222.86927246 24.47229492 -222.58862305 25.73583984 C-222.17350464 27.63003662 -222.17350464 27.63003662 -221.75 29.5625 C-221.14724261 32.28055482 -220.54084211 34.99778909 -219.93359375 37.71484375 C-219.78293961 38.39001038 -219.63228546 39.065177 -219.47706604 39.76080322 C-217.76421359 47.40921515 -215.93008186 55.0278943 -214.07861328 62.64379883 C-213.85028809 63.58376709 -213.62196289 64.52373535 -213.38671875 65.4921875 C-213.19037842 66.2951123 -212.99403809 67.09803711 -212.79174805 67.92529297 C-211.86342876 71.85815793 -210.99467383 75.80381069 -210.125 79.75 C-209.95404816 78.89302017 -209.78309631 78.03604034 -209.60696411 77.15309143 C-207.98978629 69.04710253 -206.37166519 60.94130261 -204.75250435 52.83570957 C-203.92026334 48.6693027 -203.08837755 44.50282559 -202.25732422 40.33618164 C-201.45417201 36.30949524 -200.65005975 32.2830016 -199.84530258 28.25663567 C-199.53959361 26.72625385 -199.23422116 25.19580477 -198.92920303 23.66528511 C-198.49944912 21.50917682 -198.06846082 19.35331849 -197.63720703 17.19750977 C-197.39293976 15.97395279 -197.14867249 14.75039581 -196.89700317 13.48976135 C-196.01838907 9.23355208 -195.06776889 4.99246001 -194.125 0.75 C-183.235 0.75 -172.345 0.75 -161.125 0.75 C-163.375 10.875 -163.375 10.875 -164.75 15.3125 C-165.01039063 16.15941406 -165.27078125 17.00632812 -165.5390625 17.87890625 C-165.73242188 18.49636719 -165.92578125 19.11382812 -166.125 19.75 C-165.54234375 19.36328125 -164.9596875 18.9765625 -164.359375 18.578125 C-150.41634994 9.72123487 -134.9822296 6.75844735 -118.6953125 9.28125 C-115.7792447 9.97807659 -112.96709011 10.79716054 -110.125 11.75 C-108.81789063 12.16765625 -108.81789063 12.16765625 -107.484375 12.59375 C-96.82369505 16.38712078 -90.68326908 23.24694729 -83.125 31.75 C-82.795 21.52 -82.465 11.29 -82.125 0.75 C-70.575 0.75 -59.025 0.75 -47.125 0.75 C-46.795 6.69 -46.465 12.63 -46.125 18.75 C-45.34125 17.574375 -44.5575 16.39875 -43.75 15.1875 C-40.00242506 10.21712479 -35.55013532 6.76396406 -30.125 3.75 C-29.51479004 3.38680664 -28.90458008 3.02361328 -28.27587891 2.64941406 C-19.40903119 -1.81422218 -9.61505658 -0.44209149 0 0 Z " fill="#C5C5C5" transform="translate(502.125,315.25)"/>
<path d="M0 0 C19.305 0.495 19.305 0.495 39 1 C39.495 7.93 39.495 7.93 40 15 C40.61875 14.13375 41.2375 13.2675 41.875 12.375 C48.01654563 5.05704562 57.68668939 0.68851308 67.08496094 -0.19628906 C80.95687997 -1.12732964 93.05067358 0.6908704 104.00390625 9.99609375 C112.84749224 18.8742926 117.97824708 30.51166017 118.20532227 43.06567383 C118.2352401 44.53663261 118.2352401 44.53663261 118.26576233 46.03730774 C118.28247482 47.0833165 118.29918732 48.12932526 118.31640625 49.20703125 C118.33718735 50.28756271 118.35796844 51.36809418 118.37937927 52.48136902 C118.44464036 55.92501611 118.50365075 59.36873795 118.5625 62.8125 C118.60570751 65.15039828 118.64932251 67.48828907 118.69335938 69.82617188 C118.80029772 75.55070278 118.90210727 81.27530765 119 87 C119.81404297 86.25943359 119.81404297 86.25943359 120.64453125 85.50390625 C121.35996094 84.86324219 122.07539062 84.22257812 122.8125 83.5625 C123.87404297 82.60537109 123.87404297 82.60537109 124.95703125 81.62890625 C130.01551498 77.59566014 136.87426034 78.61436022 143 79 C149.38170204 80.15193178 153.38196279 84.93065972 157 90 C158.67075165 95.01225494 159.06531518 100.30456892 157.09375 105.29296875 C154.47621834 109.76458534 151.60982419 112.5030119 147 115 C146.2575 115.4125 145.515 115.825 144.75 116.25 C137.99912488 118.09114776 131.86978868 117.67935302 125.76171875 114.22265625 C123.14500441 112.40662169 121.11476017 110.37910519 119 108 C118.67 110.31 118.34 112.62 118 115 C106.45 115 94.9 115 83 115 C82.97421875 110.0396875 82.9484375 105.079375 82.921875 99.96875 C82.89669061 96.81505341 82.87034565 93.66145122 82.83984375 90.5078125 C82.79160311 85.50878617 82.74752323 80.5099785 82.72900391 75.51074219 C82.71379296 71.47747062 82.67926989 67.44477343 82.63169098 63.41175842 C82.61692266 61.87774159 82.60896161 60.34364274 82.60811615 58.80955505 C82.72756699 46.19883191 82.72756699 46.19883191 76.6239624 35.49694824 C70.98989625 30.34028311 65.11156917 29.52137001 57.75 29.69140625 C52.73990908 30.25361816 48.95446145 31.94083525 45.46875 35.61328125 C41.16655414 41.25366013 39.76003509 46.85018662 39.68115234 53.92333984 C39.66608391 54.91951828 39.66608391 54.91951828 39.65071106 55.93582153 C39.62004738 58.11085212 39.60289145 60.28576059 39.5859375 62.4609375 C39.56721225 63.97694945 39.54763784 65.49295112 39.5272522 67.00894165 C39.47606809 70.98396734 39.43636931 74.95902677 39.39910889 78.9342041 C39.35191827 83.71180591 39.29037959 88.48924212 39.23126221 93.26670837 C39.14321728 100.51107156 39.07333367 107.7554057 39 115 C27.45 115 15.9 115 4 115 C4 89.26 4 63.52 4 37 C1.03 37 -1.94 37 -5 37 C-5 36.67 -5 36.34 -5 36 C-2.03 36 0.94 36 4 36 C4 24.45 4 12.9 4 1 C2.68 0.67 1.36 0.34 0 0 Z " fill="#727272" transform="translate(482,315)"/>
<path d="M0 0 C1.16992855 1.19668368 2.3086267 2.42579975 3.39453125 3.69921875 C3.801875 4.12332031 4.20921875 4.54742187 4.62890625 4.984375 C5.28890625 4.984375 5.94890625 4.984375 6.62890625 4.984375 C7.47027668 7.8780883 8.30220985 10.77396897 9.12890625 13.671875 C9.36738281 14.48849609 9.60585937 15.30511719 9.8515625 16.14648438 C10.07714844 16.94248047 10.30273438 17.73847656 10.53515625 18.55859375 C10.84936523 19.65046997 10.84936523 19.65046997 11.16992188 20.7644043 C11.62890625 22.984375 11.62890625 22.984375 11.62890625 27.984375 C1.39890625 27.984375 -8.83109375 27.984375 -19.37109375 27.984375 C-20.36109375 25.674375 -21.35109375 23.364375 -22.37109375 20.984375 C-28.2651761 16.31822647 -33.08450301 15.45151207 -40.37109375 15.984375 C-43.78581299 16.86897528 -43.78581299 16.86897528 -46.37109375 17.984375 C-47.67165316 23.85785313 -47.67165316 23.85785313 -45.99609375 29.359375 C-40.26942128 32.90445796 -33.70635237 34.16820782 -27.24609375 35.859375 C2.76968604 43.76685995 2.76968604 43.76685995 10.62890625 55.984375 C14.75903256 64.14605658 14.97354675 73.11961529 12.9375 82 C9.36384718 91.7490445 2.90302511 97.58869674 -6.37109375 101.984375 C-25.03439594 108.9443238 -43.45018445 109.00190918 -61.68359375 100.796875 C-72.21198304 95.05093209 -79.19224195 86.64251797 -83.74609375 75.671875 C-84.37109375 72.984375 -84.37109375 72.984375 -84.37109375 67.984375 C-72.82109375 67.984375 -61.27109375 67.984375 -49.37109375 67.984375 C-48.38109375 70.294375 -47.39109375 72.604375 -46.37109375 74.984375 C-40.55014879 79.59262309 -35.60811376 80.69130245 -28.37109375 79.984375 C-25.50818345 79.12020023 -22.52583766 78.13911891 -20.37109375 75.984375 C-19.76509124 71.89618271 -19.76509124 71.89618271 -20.37109375 67.984375 C-25.74253829 63.00831507 -33.09264032 61.87213363 -39.99609375 60.046875 C-69.58130136 52.16906358 -69.58130136 52.16906358 -78.37109375 38.984375 C-81.56921979 31.13442928 -81.89562721 21.01785531 -79.42578125 12.86328125 C-78.23519664 10.40348851 -76.93944605 8.21927703 -75.37109375 5.984375 C-74.64921875 4.911875 -73.92734375 3.839375 -73.18359375 2.734375 C-54.75237461 -15.28726149 -19.71262592 -16.7573558 0 0 Z " fill="#535353" transform="translate(163.37109375,325.015625)"/>
<path d="M0 0 C5.94 0 11.88 0 18 0 C18.33 7.92 18.66 15.84 19 24 C22.3 22.02 25.6 20.04 29 18 C35.29091795 16.62339913 41.68353125 17.37212643 47.2578125 20.6796875 C53.30098699 25.25949238 56.31378184 31.03163407 59 38 C59.268125 37.35933594 59.53625 36.71867187 59.8125 36.05859375 C63.3572342 28.23452584 67.55527691 23.2786578 75.23828125 19.33984375 C79.45959989 17.83630035 82.87483646 17.45986739 87.3125 17.5 C88.43180908 17.50966797 88.43180908 17.50966797 89.57373047 17.51953125 C98.1676393 17.80294938 104.03615547 20.59489423 109.9375 26.875 C116.74469761 35.54454413 116 39.87074034 116 52 C103.13 52 90.26 52 77 52 C77.99 55.96 77.99 55.96 79 60 C81.86822318 60.95607439 83.94244746 61.22692707 86.9375 61.3125 C87.79214844 61.34988281 88.64679688 61.38726562 89.52734375 61.42578125 C92.16119986 61.24387986 92.16119986 61.24387986 93.70703125 58.99609375 C97.33302665 55.83956283 101.11833623 56.57212222 105.75 56.75 C107.08224609 56.77707031 107.08224609 56.77707031 108.44140625 56.8046875 C110.62870848 56.85172626 112.81379816 56.91742991 115 57 C114.535761 58.27981439 114.06754038 59.55818493 113.59765625 60.8359375 C113.33734619 61.5479834 113.07703613 62.2600293 112.80883789 62.99365234 C110.10307861 69.70537278 104.19834063 72.86109673 98 76 C89.92060028 78.73129505 80.67980661 77.6599908 73.08203125 74.125 C65.4465528 69.99926305 62.14192291 63.85480728 59 56 C58.67 62.6 58.34 69.2 58 76 C52.06 76 46.12 76 40 76 C39.95101562 73.45925781 39.90203125 70.91851562 39.8515625 68.30078125 C39.79750501 65.83172879 39.74021631 63.36277091 39.68261719 60.89379883 C39.64440715 59.18195686 39.60954048 57.47003678 39.578125 55.75805664 C39.53230062 53.29284817 39.47433587 50.82817367 39.4140625 48.36328125 C39.40251129 47.60163162 39.39096008 46.83998199 39.37905884 46.05525208 C39.26662934 41.97915582 38.94734655 38.62323422 37 35 C35.15757071 34.09636205 35.15757071 34.09636205 33 34 C32.2678125 33.92136719 31.535625 33.84273438 30.78125 33.76171875 C25.78955214 33.54117612 25.78955214 33.54117612 21.5 35.875 C18.67245434 39.88068968 18.78614166 43.30181905 18.68359375 48.0703125 C18.66281265 48.86654022 18.64203156 49.66276794 18.62062073 50.48312378 C18.55515851 53.03032685 18.49625585 55.57763425 18.4375 58.125 C18.3943116 59.85027127 18.35069721 61.57553193 18.30664062 63.30078125 C18.19867755 67.53374872 18.09957993 71.76679371 18 76 C12.06 76 6.12 76 0 76 C0 50.92 0 25.84 0 0 Z " fill="#707070" transform="translate(127,230)"/>
<path d="M0 0 C11.55 0 23.1 0 35 0 C35.495 8.91 35.495 8.91 36 18 C36.78375 16.824375 37.5675 15.64875 38.375 14.4375 C42.12876739 9.42061656 46.7180844 6.2730559 52 3 C53.03125 2.360625 54.0625 1.72125 55.125 1.0625 C58 0 58 0 66 0 C66 11.55 66 23.1 66 35 C61.38 35.66 56.76 36.32 52 37 C46.1345491 39.07436678 42.24426709 40.50970185 39 46 C35.55008432 53.25936528 35.52826888 59.95157841 35.48828125 67.90625 C35.47140782 69.24004745 35.45325405 70.57382925 35.43388367 71.90759277 C35.38666582 75.39269113 35.35667528 78.87772605 35.33044434 82.36303711 C35.30049505 85.92965128 35.25417251 89.49605172 35.20898438 93.0625 C35.1217446 100.04168178 35.06156012 107.02035589 35 114 C23.45 114 11.9 114 0 114 C-0.97614352 97.9168734 -1.16041196 81.90079514 -1.12857056 65.79032135 C-1.12496497 63.72998414 -1.12337429 61.66965396 -1.12231445 59.60931396 C-1.10958811 39.71903844 -0.81961349 19.87562719 0 0 Z " fill="#A5A5A5" transform="translate(420,316)"/>
<path d="M0 0 C0.495 5.94 0.495 5.94 1 12 C2.19625 10.576875 3.3925 9.15375 4.625 7.6875 C8.58931125 3.28732207 11.45223847 0.42638736 17.53515625 -0.3046875 C23.65915753 -0.59109196 29.08049785 0.06702903 34 4 C34.495 5.485 34.495 5.485 35 7 C35.66 7 36.32 7 37 7 C37 5.02 37 3.04 37 1 C41.95 1 46.9 1 52 1 C52 17.5 52 34 52 51 C46.72 51 41.44 51 36 51 C35.67 49.35 35.34 47.7 35 46 C33.948125 46.928125 33.948125 46.928125 32.875 47.875 C27.73704152 51.67262149 22.34508531 52.94222131 16 52 C9.86772441 50.07501875 5.44253981 46.39229687 2 41 C-0.8818818 35.48092448 -1.39370313 31.23273227 -1.1875 25.0625 C-1.16719727 23.89364258 -1.16719727 23.89364258 -1.14648438 22.70117188 C-1.11150224 20.80047596 -1.05770959 18.90014166 -1 17 C-2.58437117 17.06047218 -4.16767058 17.14938946 -5.75 17.25 C-6.63171875 17.29640625 -7.5134375 17.3428125 -8.421875 17.390625 C-11.78814945 18.18628987 -12.86545569 19.29017267 -15 22 C-15.64071929 25.1830881 -15.64071929 25.1830881 -15.609375 28.734375 C-15.64160156 30.02988281 -15.67382812 31.32539063 -15.70703125 32.66015625 C-15.72177469 34.02343302 -15.73609222 35.38671445 -15.75 36.75 C-15.77816814 38.12894376 -15.80809678 39.50785275 -15.83984375 40.88671875 C-15.9105593 44.2574935 -15.95754094 47.62875093 -16 51 C-21.28 51 -26.56 51 -32 51 C-32 34.5 -32 18 -32 1 C-27.05 1 -22.1 1 -17 1 C-16.67 3.31 -16.34 5.62 -16 8 C-15.319375 7.236875 -14.63875 6.47375 -13.9375 5.6875 C-9.62138869 1.73871731 -5.85931824 0 0 0 Z " fill="#707070" transform="translate(496,458)"/>
<path d="M0 0 C0.84755859 0.04833984 1.69511719 0.09667969 2.56835938 0.14648438 C3.44943359 0.20255859 4.33050781 0.25863281 5.23828125 0.31640625 C6.13095703 0.36861328 7.02363281 0.42082031 7.94335938 0.47460938 C10.14619685 0.60418805 12.34856998 0.73914871 14.55078125 0.87890625 C22.12524934 20.21933178 22.12524934 20.21933178 25.55078125 29.87890625 C29.32247327 20.24837802 33.07178636 10.62009195 36.55078125 0.87890625 C42.16078125 0.87890625 47.77078125 0.87890625 53.55078125 0.87890625 C50.8826416 9.58701037 47.2299106 17.84803858 43.61328125 26.19140625 C42.94543295 27.7393433 42.27795672 29.28744094 41.61083984 30.83569336 C40.25495133 33.98162158 38.8973483 37.12680148 37.53857422 40.27148438 C35.6603006 44.62131471 33.79269347 48.97564306 31.9296875 53.33203125 C31.65042923 53.98491623 31.37117096 54.63780121 31.08345032 55.31047058 C29.77026407 58.38108948 28.45754217 61.45190682 27.14477539 64.52270508 C26.45242798 66.139552 26.45242798 66.139552 25.74609375 67.7890625 C25.34406738 68.72886963 24.94204102 69.66867676 24.52783203 70.63696289 C23.90458363 72.06707035 23.24844104 73.48358667 22.55078125 74.87890625 C17.27078125 74.87890625 11.99078125 74.87890625 6.55078125 74.87890625 C7.34084655 70.92857977 7.95428722 68.74485228 9.72265625 65.33203125 C10.34720703 64.06359375 10.34720703 64.06359375 10.984375 62.76953125 C11.85890047 61.01529024 12.75210281 59.27023142 13.6640625 57.53515625 C15.6913811 53.34070397 17.14714989 50.22802881 15.703125 45.6484375 C15.01663781 44.04498186 14.29435338 42.45670065 13.55078125 40.87890625 C12.57645213 38.54496849 11.60395323 36.21026623 10.6328125 33.875 C9.55154381 31.35173633 8.45692875 28.83432398 7.36328125 26.31640625 C6.79848847 25.00861017 6.23403277 23.70066847 5.66992188 22.39257812 C4.30075377 19.21966724 2.92704599 16.0487465 1.55078125 12.87890625 C1.22078125 14.19890625 0.89078125 15.51890625 0.55078125 16.87890625 C-0.196875 16.9046875 -0.94453125 16.93046875 -1.71484375 16.95703125 C-2.6996875 17.01375 -3.68453125 17.07046875 -4.69921875 17.12890625 C-5.67375 17.1753125 -6.64828125 17.22171875 -7.65234375 17.26953125 C-11.18833092 18.03994186 -12.22986443 19.04073825 -14.44921875 21.87890625 C-15.08993804 25.06199435 -15.08993804 25.06199435 -15.05859375 28.61328125 C-15.09082031 29.90878906 -15.12304688 31.20429688 -15.15625 32.5390625 C-15.17099344 33.90233927 -15.18531097 35.2656207 -15.19921875 36.62890625 C-15.22738689 38.00785001 -15.25731553 39.386759 -15.2890625 40.765625 C-15.35977805 44.13639975 -15.40675969 47.50765718 -15.44921875 50.87890625 C-20.72921875 50.87890625 -26.00921875 50.87890625 -31.44921875 50.87890625 C-31.44921875 34.37890625 -31.44921875 17.87890625 -31.44921875 0.87890625 C-26.16921875 0.87890625 -20.88921875 0.87890625 -15.44921875 0.87890625 C-15.11921875 2.85890625 -14.78921875 4.83890625 -14.44921875 6.87890625 C-13.97871094 6.45738281 -13.50820313 6.03585937 -13.0234375 5.6015625 C-12.40082031 5.05371094 -11.77820313 4.50585938 -11.13671875 3.94140625 C-10.52183594 3.39613281 -9.90695312 2.85085938 -9.2734375 2.2890625 C-6.21086033 -0.07836868 -3.71525429 -0.22441133 0 0 Z " fill="#A3A3A3" transform="translate(585.44921875,458.12109375)"/>
<path d="M0 0 C4.95 0 9.9 0 15 0 C15.33 7.26 15.66 14.52 16 22 C18.97 19.525 18.97 19.525 22 17 C27.88771264 15.03742912 33.95569112 15.27066421 39.75 17.5 C45.82493256 20.54819938 49.17435162 25.72353815 51.875 31.8125 C54.49598915 39.84810746 53.46706423 47.7651054 50.32421875 55.484375 C47.49261593 60.86358507 43.66431504 64.54929988 38.0625 66.9375 C32.10474271 68.77418818 27.29194299 68.85618011 21.625 66.125 C19.32493535 64.88791344 17.86781078 63.86781078 16 62 C15.505 64.475 15.505 64.475 15 67 C10.05 67 5.1 67 0 67 C0 44.89 0 22.78 0 0 Z " fill="#717171" transform="translate(408,442)"/>
<path d="M0 0 C1.11930908 0.00966797 1.11930908 0.00966797 2.26123047 0.01953125 C10.8551393 0.30294938 16.72365547 3.09489423 22.625 9.375 C29.43219761 18.04454413 28.6875 22.37074034 28.6875 34.5 C15.8175 34.5 2.9475 34.5 -10.3125 34.5 C-9.6525 37.14 -8.9925 39.78 -8.3125 42.5 C-5.44427682 43.45607439 -3.37005254 43.72692707 -0.375 43.8125 C0.47964844 43.84988281 1.33429688 43.88726562 2.21484375 43.92578125 C4.84869986 43.74387986 4.84869986 43.74387986 6.39453125 41.49609375 C10.02052665 38.33956283 13.80583623 39.07212222 18.4375 39.25 C19.32566406 39.26804687 20.21382812 39.28609375 21.12890625 39.3046875 C23.31620848 39.35172626 25.50129816 39.41742991 27.6875 39.5 C27.223261 40.77981439 26.75504038 42.05818493 26.28515625 43.3359375 C26.02484619 44.0479834 25.76453613 44.7600293 25.49633789 45.49365234 C22.79057861 52.20537278 16.88584063 55.36109673 10.6875 58.5 C2.60810028 61.23129505 -6.63269339 60.1599908 -14.23046875 56.625 C-21.43233931 52.73355775 -25.85638261 46.25959212 -28.3125 38.5 C-29.38617981 29.77205792 -29.61801854 20.22832133 -24.9296875 12.546875 C-18.35361301 4.22353434 -10.67211199 -0.09651469 0 0 Z " fill="#F9F9F9" transform="translate(214.3125,247.5)"/>
<path d="M0 0 C5.82747683 5.66997746 7.38773334 11.95825214 7.60546875 19.92211914 C7.68394976 28.27151812 7.31856785 34.91775961 1.44140625 41.2734375 C-4.70767454 46.96918341 -9.68769026 48.67927444 -18.03515625 48.5 C-24.09516286 47.92880645 -27.86462805 44.7770852 -31.6875 40.25 C-37.04744423 31.2208322 -38.09774127 21.94525356 -36.19140625 11.54296875 C-34.34857625 5.43143648 -31.39170919 1.16273333 -26.125 -2.5625 C-17.12219356 -6.94848263 -8.11036265 -5.28116638 0 0 Z " fill="#020202" transform="translate(386.6875,357.75)"/>
<path d="M0 0 C5.61 0 11.22 0 17 0 C17 4.62 17 9.24 17 14 C20.96 14 24.92 14 29 14 C29 18.62 29 23.24 29 28 C25.37 28 21.74 28 18 28 C18 36.91 18 45.82 18 55 C21.63 55.33 25.26 55.66 29 56 C29 60.95 29 65.9 29 71 C10.58561367 71.80451202 10.58561367 71.80451202 5 67 C0.46237107 61.41522594 -0.12851429 57.30125923 -0.09765625 50.265625 C-0.09443359 48.97011719 -0.09121094 47.67460937 -0.08789062 46.33984375 C-0.07953598 44.97656183 -0.07107104 43.61328058 -0.0625 42.25 C-0.05748168 40.87109535 -0.05291935 39.49218896 -0.04882812 38.11328125 C-0.03704093 34.74214341 -0.02058635 31.37109372 0 28 C-2.31 28 -4.62 28 -7 28 C-7 23.38 -7 18.76 -7 14 C-4.69 14 -2.38 14 0 14 C0 9.38 0 4.76 0 0 Z " fill="#FCFCFC" transform="translate(96,235)"/>
<path d="M0 0 C4.95593656 3.1717994 9.23960558 7.34381675 11.125 13 C11.91630194 19.36432843 11.38109217 24.03878046 7.6171875 29.3125 C5.40220034 31.81740694 3.05430789 33.41329156 0.125 35 C-0.6175 35.4125 -1.36 35.825 -2.125 36.25 C-8.74922928 38.05660799 -15.04663149 37.76563749 -21.0546875 34.3359375 C-25.59807047 31.00152339 -29.48973822 26.54104712 -30.875 21 C-31.5490062 15.04627854 -30.24347306 10.83728399 -26.875 6 C-19.77307899 -1.45701706 -9.95427687 -3.54535888 0 0 Z " fill="#A3A3A3" transform="translate(628.875,395)"/>
<path d="M0 0 C5.28 0 10.56 0 16 0 C16 22.11 16 44.22 16 67 C10.72 67 5.44 67 0 67 C0 44.89 0 22.78 0 0 Z " fill="#F5F5F5" transform="translate(364,442)"/>
<path d="M0 0 C0 5.28 0 10.56 0 16 C-2.35125 16.37125 -2.35125 16.37125 -4.75 16.75 C-9.14568726 17.44405588 -11.21690727 18.48710564 -14 22 C-14.64071929 25.1830881 -14.64071929 25.1830881 -14.609375 28.734375 C-14.64160156 30.02988281 -14.67382812 31.32539063 -14.70703125 32.66015625 C-14.72177469 34.02343302 -14.73609222 35.38671445 -14.75 36.75 C-14.77816814 38.12894376 -14.80809678 39.50785275 -14.83984375 40.88671875 C-14.9105593 44.2574935 -14.95754094 47.62875093 -15 51 C-20.28 51 -25.56 51 -31 51 C-31 34.5 -31 18 -31 1 C-26.05 1 -21.1 1 -16 1 C-15.67 3.31 -15.34 5.62 -15 8 C-14.319375 7.236875 -13.63875 6.47375 -12.9375 5.6875 C-9.0604209 2.14038508 -5.40828372 0 0 0 Z " fill="#FAFAFA" transform="translate(495,458)"/>
<path d="M0 0 C5.28 0 10.56 0 16 0 C16.33 1.98 16.66 3.96 17 6 C17.67095703 5.3503125 17.67095703 5.3503125 18.35546875 4.6875 C23.35506003 0.08233276 23.35506003 0.08233276 26.9375 -0.375 C27.618125 -0.25125 28.29875 -0.1275 29 0 C31.59227518 4.86051596 31.18689553 9.65271133 31 15 C29.98679687 15.14695312 29.98679687 15.14695312 28.953125 15.296875 C28.06109375 15.44640625 27.1690625 15.5959375 26.25 15.75 C24.92742188 15.95882813 24.92742188 15.95882813 23.578125 16.171875 C20.33758565 17.21277552 19.11317568 18.33269293 17 21 C16.35928071 24.1830881 16.35928071 24.1830881 16.390625 27.734375 C16.35839844 29.02988281 16.32617188 30.32539063 16.29296875 31.66015625 C16.27822531 33.02343302 16.26390778 34.38671445 16.25 35.75 C16.22183186 37.12894376 16.19190322 38.50785275 16.16015625 39.88671875 C16.0894407 43.2574935 16.04245906 46.62875093 16 50 C10.72 50 5.44 50 0 50 C0 33.5 0 17 0 0 Z " fill="#F8F8F8" transform="translate(554,459)"/>
<path d="M0 0 C4.95 0 9.9 0 15 0 C15 16.5 15 33 15 50 C10.05 50 5.1 50 0 50 C0 33.5 0 17 0 0 Z " fill="#A6A6A6" transform="translate(386,459)"/>
<path d="M0 0 C3.46460116 2.23939839 5.54197005 4.99467559 6.46484375 9.03515625 C6.73286339 14.59924392 4.98041979 18.79953357 1.3125 22.875 C-2.12408403 24.54685169 -5.31260801 24.77852806 -9 24 C-12.0190434 22.24700706 -14.41511201 20.16977599 -16 17 C-16.42526125 12.37937295 -16.56310381 8.28709443 -14.6875 4 C-10.61389548 -0.82797572 -5.92641774 -1.18528355 0 0 Z " fill="#020202" transform="translate(439,472)"/>
<path d="M0 0 C2.87029869 1.79393668 4.49131638 2.98263276 6 6 C6.41079745 10.90586951 6.62569374 15.46705034 4.75 20.0625 C1.6308152 23.51588317 -0.259184 23.91768711 -4.9375 24.4375 C-8.47528493 24.3648962 -8.97889945 24.01706002 -11.9375 21.625 C-15.79925102 16.71004415 -15.6609368 12.10705604 -15 6 C-11.22755583 -0.28740695 -6.92794348 -0.897402 0 0 Z " fill="#010101" transform="translate(526,472)"/>
<path d="M0 0 C3.83592455 2.0403854 4.77074547 3.29950006 6.125 7.4375 C6 11 6 11 4.125 13.9375 C-0.01553143 16.67025074 -3.1690497 16.94636153 -8 16 C-10.5625 14.5 -10.5625 14.5 -12 12 C-12.7835909 7.97481725 -12.62410234 5.04017056 -10.5 1.5 C-7.01281688 -0.59230987 -3.90561567 -0.75167603 0 0 Z " fill="#A1A1A1" transform="translate(397,437)"/>
<path d="M0 0 C3 1.625 3 1.625 5 4 C5.33 5.98 5.66 7.96 6 10 C-1.26 10 -8.52 10 -16 10 C-13.06988896 1.20966687 -9.07602324 -1.61132297 0 0 Z " fill="#111111" transform="translate(219,262)"/>
</svg>
