<svg xmlns="http://www.w3.org/2000/svg" xmlns:xlink="http://www.w3.org/1999/xlink" width="720" zoomAndPan="magnify" viewBox="0 0 540 540.000001" height="720" preserveAspectRatio="xMidYMid meet" version="1.2"><defs><clipPath id="a409718074"><path d="M 0.5 0 L 539.5 0 L 539.5 539 L 0.5 539 Z M 0.5 0 "/></clipPath><clipPath id="2fcafde522"><path d="M 218.773438 127.773438 L 321.226562 127.773438 L 321.226562 411.183594 L 218.773438 411.183594 Z M 218.773438 127.773438 "/></clipPath><clipPath id="95b5887abf"><path d="M 290.203125 127.773438 L 423.683594 127.773438 L 423.683594 269.5 L 290.203125 269.5 Z M 290.203125 127.773438 "/></clipPath><clipPath id="f2bec9a40b"><path d="M 116.316406 269.5 L 240.488281 269.5 L 240.488281 411.230469 L 116.316406 411.230469 Z M 116.316406 269.5 "/></clipPath><clipPath id="07a14aef06"><path d="M 360.804688 348.351562 L 423.683594 348.351562 L 423.683594 411.230469 L 360.804688 411.230469 Z M 360.804688 348.351562 "/></clipPath><clipPath id="7938f49248"><path d="M 392.246094 348.351562 C 374.882812 348.351562 360.804688 362.425781 360.804688 379.789062 C 360.804688 397.152344 374.882812 411.230469 392.246094 411.230469 C 409.609375 411.230469 423.683594 397.152344 423.683594 379.789062 C 423.683594 362.425781 409.609375 348.351562 392.246094 348.351562 Z M 392.246094 348.351562 "/></clipPath></defs><g id="efa0937300"><g clip-rule="nonzero" clip-path="url(#a409718074)"><path style=" stroke:none;fill-rule:nonzero;fill:#ffffff;fill-opacity:1;" d="M 0.5 0 L 539.5 0 L 539.5 539 L 0.5 539 Z M 0.5 0 "/><path style=" stroke:none;fill-rule:nonzero;fill:#000000;fill-opacity:1;" d="M 0.5 0 L 539.5 0 L 539.5 539 L 0.5 539 Z M 0.5 0 "/></g><g clip-rule="nonzero" clip-path="url(#2fcafde522)"><path style=" stroke:none;fill-rule:nonzero;fill:#ffffff;fill-opacity:1;" d="M 218.773438 127.773438 L 321.226562 127.773438 L 321.226562 411.128906 L 218.773438 411.128906 Z M 218.773438 127.773438 "/></g><g clip-rule="nonzero" clip-path="url(#95b5887abf)"><path style=" stroke:none;fill-rule:nonzero;fill:#ffffff;fill-opacity:1;" d="M 290.203125 127.773438 L 423.683594 127.773438 L 423.683594 269.597656 L 290.203125 269.597656 Z M 290.203125 127.773438 "/></g><g clip-rule="nonzero" clip-path="url(#f2bec9a40b)"><path style=" stroke:none;fill-rule:nonzero;fill:#ffffff;fill-opacity:1;" d="M 116.316406 269.5 L 240.488281 269.5 L 240.488281 411.136719 L 116.316406 411.136719 Z M 116.316406 269.5 "/></g><path style="fill:none;stroke-width:4;stroke-linecap:butt;stroke-linejoin:miter;stroke:#ffffff;stroke-opacity:1;stroke-miterlimit:4;" d="M -0.00253871 1.998823 L 211.741676 1.998823 " transform="matrix(0,-0.669348,0.669348,0,320.642562,269.498301)"/><path style="fill:none;stroke-width:4;stroke-linecap:butt;stroke-linejoin:miter;stroke:#ffffff;stroke-opacity:1;stroke-miterlimit:4;" d="M 0.00127415 1.997407 L 211.739653 1.997407 " transform="matrix(0,-0.669348,0.669348,0,216.557572,411.227415)"/><path style="fill:none;stroke-width:4;stroke-linecap:butt;stroke-linejoin:miter;stroke:#ffffff;stroke-opacity:1;stroke-miterlimit:4;" d="M -0.00289968 2.001407 L 155.500679 2.001407 " transform="matrix(-0.669348,0.00000000116823,-0.00000000116823,-0.669348,321.982434,270.839637)"/><g clip-rule="nonzero" clip-path="url(#07a14aef06)"><g clip-rule="nonzero" clip-path="url(#7938f49248)"><path style=" stroke:none;fill-rule:nonzero;fill:#ffffff;fill-opacity:1;" d="M 360.804688 348.351562 L 423.683594 348.351562 L 423.683594 411.230469 L 360.804688 411.230469 Z M 360.804688 348.351562 "/></g></g></g></svg>