<?xml version="1.0" encoding="UTF-8"?>
<svg version="1.1" xmlns="http://www.w3.org/2000/svg" width="720" height="720">
<path d="M0 0 C237.6 0 475.2 0 720 0 C720 237.6 720 475.2 720 720 C482.4 720 244.8 720 0 720 C0 482.4 0 244.8 0 0 Z " fill="#FEFEFE" transform="translate(0,0)"/>
<path d="M0 0 C100.65 0 201.3 0 305 0 C305 69.96 305 139.92 305 212 C255.5 212 206 212 155 212 C155 142.37 155 72.74 155 1 C154.01 1 153.02 1 152 1 C152 69.97 152 138.94 152 210 C101.84 210 51.68 210 0 210 C0 140.7 0 71.4 0 0 Z " fill="#010101" transform="translate(284,154)"/>
<path d="M0 0 C50.16 0 100.32 0 152 0 C152 68.97 152 137.94 152 209 C101.84 209 51.68 209 0 209 C0 140.03 0 71.06 0 0 Z " fill="#000000" transform="translate(284,368)"/>
<path d="M0 0 C49.17 0 98.34 0 149 0 C149 69.63 149 139.26 149 211 C99.83 211 50.66 211 0 211 C0 141.37 0 71.74 0 0 Z " fill="#000000" transform="translate(131,366)"/>
<path d="M0 0 C8.83743313 6.11822293 15.48228077 16.59638487 18 27 C19.95611686 43.21544234 17.25274827 56.57004467 7.09375 69.62890625 C-1.24459132 79.07176667 -13.37112597 84.11724004 -25.76953125 85.25390625 C-38.57316784 85.77410643 -50.47456941 81.3860168 -60.21875 73.1171875 C-69.98511189 63.82456704 -74.88796747 52.66098734 -75.34350586 39.17578125 C-75.53238705 26.12687286 -72.09650946 15.64559454 -63 6 C-45.25567409 -12.20693403 -21.15917661 -13.43986788 0 0 Z " fill="#010101" transform="translate(571,505)"/>
<path d="M0 0 C4.29 0 8.58 0 13 0 C13.33 1.98 13.66 3.96 14 6 C14.94875 5.195625 15.8975 4.39125 16.875 3.5625 C21.3601177 -0.24009979 24.87351441 -0.12273335 30.625 -0.0625 C33.38875 -0.041875 36.1525 -0.02125 39 0 C41.97 8.25 44.94 16.5 48 25 C50.59388609 19.16375629 53.05396432 13.41497467 55.25 7.4375 C55.518125 6.71498047 55.78625 5.99246094 56.0625 5.24804688 C56.7109114 3.49965186 57.35584071 1.74996608 58 0 C62.62 0 67.24 0 72 0 C70.0661222 5.99516892 67.92747171 11.80310577 65.453125 17.59375 C64.95168976 18.77934509 64.95168976 18.77934509 64.44012451 19.9888916 C63.37995311 22.49396656 62.31520408 24.99706145 61.25 27.5 C59.85803787 30.78068397 58.46794 34.06215594 57.078125 37.34375 C56.56952942 38.54330322 56.56952942 38.54330322 56.05065918 39.76708984 C52.64130147 47.82045973 49.31204379 55.90620929 46 64 C41.38 64 36.76 64 32 64 C33.89241537 57.92435066 36.16038214 52.4171997 39.109375 46.7734375 C40.92116526 41.13145907 38.76267353 35.86548713 36.49609375 30.62890625 C36.00302734 29.47841797 35.50996094 28.32792969 35.00195312 27.14257812 C34.48568359 25.96115234 33.96941406 24.77972656 33.4375 23.5625 C32.91736328 22.35400391 32.39722656 21.14550781 31.86132812 19.90039062 C30.58170626 16.93025915 29.29441585 13.96370674 28 11 C27.67 11.66 27.34 12.32 27 13 C25.0390625 13.5625 25.0390625 13.5625 22.625 14 C19.32474381 14.60200113 17.88591027 15.07605982 15 17 C14.00544091 19.98367726 13.80440368 22.2004192 13.68359375 25.32421875 C13.64169922 26.35224609 13.59980469 27.38027344 13.55664062 28.43945312 C13.51732422 29.51130859 13.47800781 30.58316406 13.4375 31.6875 C13.39431641 32.77095703 13.35113281 33.85441406 13.30664062 34.97070312 C13.20053258 37.64698385 13.09975945 40.32347511 13 43 C8.71 43 4.42 43 0 43 C0 28.81 0 14.62 0 0 Z " fill="#040404" transform="translate(408,625)"/>
<path d="M0 0 C4.29 0 8.58 0 13 0 C13.33 5.94 13.66 11.88 14 18 C16.31 16.68 18.62 15.36 21 14 C26.76580314 12.81727115 32.14493353 13.7671182 37.2421875 16.65625 C41.13439622 19.63162734 43.46740109 23.40220328 45 28 C46.26183225 43.19606552 46.26183225 43.19606552 41.50390625 49.41796875 C36.80174978 54.36439309 33.20868464 57.14996791 26.25 57.375 C22.08065544 57.36497754 19.47264185 57.24234426 16.25 54.5 C15.5075 53.675 14.765 52.85 14 52 C13.505 54.475 13.505 54.475 13 57 C8.71 57 4.42 57 0 57 C0 38.19 0 19.38 0 0 Z " fill="#020202" transform="translate(285,611)"/>
<path d="M0 0 C2.375 1.6875 2.375 1.6875 3.375 4.6875 C4.035 4.6875 4.695 4.6875 5.375 4.6875 C5.375 2.7075 5.375 0.7275 5.375 -1.3125 C9.665 -1.3125 13.955 -1.3125 18.375 -1.3125 C18.375 12.8775 18.375 27.0675 18.375 41.6875 C14.085 41.6875 9.795 41.6875 5.375 41.6875 C4.88 39.2125 4.88 39.2125 4.375 36.6875 C3.199375 37.6465625 3.199375 37.6465625 2 38.625 C-2.97037742 42.53029654 -7.46722772 42.15849108 -13.625 41.6875 C-18.83060436 39.95229855 -21.44545575 37.10353368 -24.625 32.6875 C-27.90565787 26.11471342 -27.89997546 17.09076578 -25.8671875 10.0703125 C-20.67086146 -0.77241507 -11.26258284 -4.07783172 0 0 Z " fill="#050505" transform="translate(385.625,626.3125)"/>
<path d="M0 0 C4.29 0 8.58 0 13 0 C13.34933594 1.85367188 13.69867188 3.70734375 14.05859375 5.6171875 C14.51807329 8.03648794 14.9777172 10.45575717 15.4375 12.875 C15.66759766 14.09832031 15.89769531 15.32164063 16.13476562 16.58203125 C16.35712891 17.74863281 16.57949219 18.91523437 16.80859375 20.1171875 C17.01282959 21.19597168 17.21706543 22.27475586 17.42749023 23.38623047 C17.88030198 25.96517234 17.88030198 25.96517234 19 28 C19.26478149 26.88757935 19.26478149 26.88757935 19.53491211 25.75268555 C20.33439115 22.39729227 21.13592105 19.04239221 21.9375 15.6875 C22.21529297 14.52025391 22.49308594 13.35300781 22.77929688 12.15039062 C23.04677734 11.03212891 23.31425781 9.91386719 23.58984375 8.76171875 C23.83597412 7.73006592 24.08210449 6.69841309 24.33569336 5.63549805 C25 3 25 3 26 0 C30.62 0 35.24 0 40 0 C42.31 9.57 44.62 19.14 47 29 C48.98 19.43 50.96 9.86 53 0 C56.96 0 60.92 0 65 0 C64.25939276 6.3945113 62.71380068 12.51880123 61.125 18.75 C60.86847656 19.7709375 60.61195313 20.791875 60.34765625 21.84375 C59.05261897 26.97183734 57.72680034 32.0917737 56.3671875 37.203125 C56.1285498 38.10192383 55.88991211 39.00072266 55.64404297 39.92675781 C55 42 55 42 54 43 C51.4672235 43.07320163 48.96896082 43.09227569 46.4375 43.0625 C43.983125 43.041875 41.52875 43.02125 39 43 C37.02 34.42 35.04 25.84 33 17 C31.31150834 22.90964941 31.31150834 22.90964941 29.7109375 28.83984375 C29.49179687 29.67451172 29.27265625 30.50917969 29.046875 31.36914062 C28.71429688 32.64047852 28.71429688 32.64047852 28.375 33.9375 C28.14554687 34.81212891 27.91609375 35.68675781 27.6796875 36.58789062 C27.1191126 38.72508242 26.55946124 40.86251641 26 43 C21.05 43 16.1 43 11 43 C8.55442344 34.53454267 6.16071016 26.05545321 3.8125 17.5625 C3.55065918 16.62776855 3.28881836 15.69303711 3.01904297 14.72998047 C1.66940258 9.82115811 0.57767517 5.05987768 0 0 Z " fill="#040404" transform="translate(289,67)"/>
<path d="M0 0 C5.52152248 3.07662843 8.45876322 6.14810734 11.00390625 11.90234375 C11.49890625 12.89234375 11.49890625 12.89234375 12.00390625 13.90234375 C12.62693579 22.57683189 12.52025847 28.68272109 6.81640625 35.52734375 C0.21980778 41.09780468 -5.17065412 42.58725485 -13.87109375 42.28515625 C-19.79324929 41.5596922 -23.90558201 39.40025717 -27.87109375 34.96484375 C-32.40589612 28.42939328 -32.62319316 22.6803993 -31.99609375 14.90234375 C-30.93732506 9.11761662 -28.41554786 5.81139528 -23.91015625 2.12890625 C-16.88475336 -2.37308662 -7.78380613 -2.85169429 0 0 Z " fill="#030303" transform="translate(384.99609375,68.09765625)"/>
<path d="M0 0 C4.29 0 8.58 0 13 0 C13.33 1.32 13.66 2.64 14 4 C14.763125 3.34 15.52625 2.68 16.3125 2 C20.84098682 -1.02257672 25.76679788 -0.63952694 31 0 C36.53759019 1.9129857 39.51986954 5.0005456 42.09716797 10.22338867 C43.20312463 13.62469886 43.22574009 16.47553976 43.1953125 20.05078125 C43.1924826 20.70958786 43.18965271 21.36839447 43.18673706 22.04716492 C43.17560924 24.13580062 43.15051948 26.22399556 43.125 28.3125 C43.11496059 29.73501982 43.10583642 31.1575464 43.09765625 32.58007812 C43.07740196 36.05368873 43.03824196 39.52635539 43 43 C38.71 43 34.42 43 30 43 C29.94392578 40.14601563 29.94392578 40.14601563 29.88671875 37.234375 C29.82106581 34.7395634 29.75461825 32.24477261 29.6875 29.75 C29.66494141 28.49574219 29.64238281 27.24148437 29.61914062 25.94921875 C29.58369141 24.74394531 29.54824219 23.53867188 29.51171875 22.296875 C29.48553467 21.18666992 29.45935059 20.07646484 29.43237305 18.93261719 C28.95867579 15.71971404 28.252087 14.30388672 26 12 C23.83452197 11.37036063 23.83452197 11.37036063 21.5 11.5 C20.7265625 11.4896875 19.953125 11.479375 19.15625 11.46875 C16.88767009 11.82674486 16.88767009 11.82674486 15.3972168 13.63964844 C13.60770295 16.66271673 13.57087596 18.79485935 13.48828125 22.296875 C13.45283203 23.50214844 13.41738281 24.70742187 13.38085938 25.94921875 C13.34702148 27.83060547 13.34702148 27.83060547 13.3125 29.75 C13.27833984 31.01972656 13.24417969 32.28945312 13.20898438 33.59765625 C13.12651586 36.73145999 13.06158146 39.86571624 13 43 C8.71 43 4.42 43 0 43 C0 28.81 0 14.62 0 0 Z " fill="#040404" transform="translate(428,67)"/>
<path d="M0 0 C3.55960445 2.12221661 5.57283969 4.64567937 7.4375 8.375 C7.4375 9.695 7.4375 11.015 7.4375 12.375 C5.47983719 12.45582094 3.52123272 12.51410778 1.5625 12.5625 C-0.07332031 12.61470703 -0.07332031 12.61470703 -1.7421875 12.66796875 C-2.67289062 12.57128906 -3.60359375 12.47460938 -4.5625 12.375 C-5.2225 11.385 -5.8825 10.395 -6.5625 9.375 C-8.53997122 9.01202064 -8.53997122 9.01202064 -10.6875 9.1875 C-11.96625 9.249375 -13.245 9.31125 -14.5625 9.375 C-14.54663751 11.34414095 -14.54663751 11.34414095 -13.5625 13.375 C-10.75965074 14.60564502 -10.75965074 14.60564502 -7.375 15.375 C-0.87822277 17.19153311 3.58491723 18.59612584 7.4375 24.375 C8.14393613 28.76147553 8.00705363 32.32702132 5.875 36.25 C-0.06705139 41.43024993 -5.61369345 41.97960822 -13.328125 41.79296875 C-19.38799254 41.00986993 -23.80741626 38.55555859 -27.625 33.8125 C-28.5625 31.375 -28.5625 31.375 -28.5625 27.375 C-26.45945523 27.2669977 -24.35483091 27.18941013 -22.25 27.125 C-20.49236328 27.05539063 -20.49236328 27.05539063 -18.69921875 26.984375 C-15.5625 27.375 -15.5625 27.375 -13.84375 29.375 C-13.4209375 30.035 -12.998125 30.695 -12.5625 31.375 C-9.43663125 31.70897787 -9.43663125 31.70897787 -6.5625 31.375 C-5.9025 29.725 -5.2425 28.075 -4.5625 26.375 C-5.26375 26.19324219 -5.965 26.01148437 -6.6875 25.82421875 C-21.89041454 21.79627264 -21.89041454 21.79627264 -26.0625 18.25 C-28.16275903 14.22450353 -28.35542623 10.82509619 -27.5625 6.375 C-22.17156543 -3.16280732 -9.40340311 -4.21653535 0 0 Z " fill="#050505" transform="translate(281.5625,68.625)"/>
<path d="M0 0 C4.29 0 8.58 0 13 0 C13 18.81 13 37.62 13 57 C8.71 57 4.42 57 0 57 C0 38.19 0 19.38 0 0 Z " fill="#000000" transform="translate(249,611)"/>
<path d="M0 0 C4.29 0 8.58 0 13 0 C13.33 1.65 13.66 3.3 14 5 C14.680625 4.360625 15.36125 3.72125 16.0625 3.0625 C19.46408839 0.6741507 21.90433701 0.32122847 26 0 C26 4.29 26 8.58 26 13 C23.75390625 13.42317708 21.5078125 13.84635417 19.26171875 14.26953125 C16.61258561 15.12512347 15.68856945 15.79679632 14 18 C13.49454132 20.70484875 13.49454132 20.70484875 13.48828125 23.76171875 C13.45283203 24.87998047 13.41738281 25.99824219 13.38085938 27.15039062 C13.34702148 28.90125977 13.34702148 28.90125977 13.3125 30.6875 C13.27833984 31.86634766 13.24417969 33.04519531 13.20898438 34.25976562 C13.12642761 37.17284019 13.06153987 40.08640568 13 43 C8.71 43 4.42 43 0 43 C0 28.81 0 14.62 0 0 Z " fill="#040404" transform="translate(333,625)"/>
<path d="M0 0 C4.29 0 8.58 0 13 0 C13.33 1.65 13.66 3.3 14 5 C14.680625 4.360625 15.36125 3.72125 16.0625 3.0625 C19.46408839 0.6741507 21.90433701 0.32122847 26 0 C26 4.29 26 8.58 26 13 C23.75390625 13.42317708 21.5078125 13.84635417 19.26171875 14.26953125 C16.61258561 15.12512347 15.68856945 15.79679632 14 18 C13.49454132 20.70484875 13.49454132 20.70484875 13.48828125 23.76171875 C13.45283203 24.87998047 13.41738281 25.99824219 13.38085938 27.15039062 C13.34702148 28.90125977 13.34702148 28.90125977 13.3125 30.6875 C13.27833984 31.86634766 13.24417969 33.04519531 13.20898438 34.25976562 C13.12642761 37.17284019 13.06153987 40.08640568 13 43 C8.71 43 4.42 43 0 43 C0 28.81 0 14.62 0 0 Z " fill="#040404" transform="translate(400,67)"/>
<path d="M0 0 C4.29 0 8.58 0 13 0 C13 14.19 13 28.38 13 43 C8.71 43 4.42 43 0 43 C0 28.81 0 14.62 0 0 Z " fill="#000000" transform="translate(267,625)"/>
<path d="M0 0 C4.30750548 0.35895879 5.74111588 1.30361588 8.75 4.3125 C10.34561887 7.50373774 10.1299142 10.83995091 9.75 14.3125 C8.11312815 17.89802881 7.06027417 19.10565055 3.75 21.3125 C-0.42262337 21.77612482 -2.53714371 21.7619094 -6.125 19.5 C-9.37972054 16.14955239 -9.63866466 12.9108037 -9.61328125 8.31640625 C-9.00346919 4.95260423 -6.81556176 3.37746434 -4.25 1.3125 C-3.25 0.3125 -3.25 0.3125 0 0 Z " fill="#F5F5F5" transform="translate(307.25,635.6875)"/>
<path d="M0 0 C3 1.8125 3 1.8125 5 5 C5.98699035 10.39608656 5.95104347 14.53020555 2.9375 19.1875 C-0.81006772 21.49982902 -2.66429982 21.76064915 -7 21 C-11.35612356 18.70313485 -11.35612356 18.70313485 -13 16 C-14.12346522 10.64749071 -13.92369938 6.47214589 -11 1.8125 C-7.1456129 -0.5161922 -4.38701499 -1.05252981 0 0 Z " fill="#F7F7F7" transform="translate(385,636)"/>
<path d="M0 0 C2.77789004 0.77848128 4.45784852 2.35752086 6.09375 4.6953125 C7.68842152 8.18734782 7.42187957 10.72847965 6.9375 14.54296875 C5.67265069 17.45212215 4.68299933 19.00312441 2.125 20.85546875 C-0.91325018 21.81034738 -2.89108905 22.06075013 -6.0625 21.54296875 C-9.32415927 18.84855457 -10.72791474 17.23478292 -11.546875 13.09375 C-11.78562408 8.65699622 -11.49012086 6.21112635 -9.0625 2.41796875 C-5.76462318 0.35679574 -3.8347489 -0.26872293 0 0 Z " fill="#F4F4F4" transform="translate(377.0625,77.45703125)"/>
<path d="M0 0 C2.4375 1.625 2.4375 1.625 4 4 C4.60605429 7.63632575 4.47161336 9.28314769 2.4375 12.375 C-0.93510779 14.62340519 -3.02512383 14.56783945 -7 14 C-9.4375 12.375 -9.4375 12.375 -11 10 C-11.60605429 6.36367425 -11.47161336 4.71685231 -9.4375 1.625 C-6.06489221 -0.62340519 -3.97487617 -0.56783945 0 0 Z " fill="#090909" transform="translate(277,606)"/>
</svg>
